# xmcd CD database file
#
# Track frame offsets:
#	150
#	12730
#	14600
#
# Disc length: 597 seconds
#
# Revision: 0
# Processed by: cddbd v1.5PL3 Copyright (c) Steve Scherf et al.
# Submitted via: CDex 1.50beta10
#
DISCID=20025303
DTITLE=空気公団 - 夕暮れ電車に飛び乗れ
DYEAR=2001
DGENRE=Japanese Pop
TTITLE0=夕暮れ電車の飛び乗れ
TTITLE1=3月16日
TTITLE2=ポロンちゃん+猫になる(スタジオライブ)
EXTD=YEAR: 2001
EXTT0=
EXTT1=
EXTT2=
PLAYORDER=
